<svg id="Layer_1" data-name="Layer 1" xmlns="http://www.w3.org/2000/svg" viewBox="0 0 55 32"><defs><style>.cls-1{fill:#e82119;}.cls-2{fill:#013d7d;}</style></defs><path class="cls-1" d="M16.89,15.24H15.3V9.71a.39.39,0,0,0-.39-.4h-.72a.4.4,0,0,0-.4.4v5.53H12.67V9.71a.39.39,0,0,0-.39-.39h-.73a.4.4,0,0,0-.39.39v5.53H10V9.72a.39.39,0,0,0-.39-.39H8.92a.38.38,0,0,0-.39.39v5.52H7.41V9.7A.39.39,0,0,0,7,9.31H6.29a.39.39,0,0,0-.4.39v5.54H4.31a.39.39,0,0,0-.39.4v.72a.39.39,0,0,0,.39.4H5.89v5.52a.39.39,0,0,0,.4.39H7a.39.39,0,0,0,.4-.39V16.76H8.53V22.3a.38.38,0,0,0,.39.39h.73A.39.39,0,0,0,10,22.3V16.76h1.12v5.53a.4.4,0,0,0,.39.4h.73a.39.39,0,0,0,.39-.4V16.76h1.12v5.53a.4.4,0,0,0,.4.39h.72a.39.39,0,0,0,.39-.39V16.76h1.59a.39.39,0,0,0,.39-.4v-.72A.39.39,0,0,0,16.89,15.24Z"/><path class="cls-2" d="M29.23,10.92v7.41a3.31,3.31,0,0,1-3.31,3.31H23.49a3.31,3.31,0,0,1-3.3-3.31V10.92a.48.48,0,0,1,.48-.49H22a.49.49,0,0,1,.5.49v7.33a1.5,1.5,0,0,0,1.5,1.5H25.4a1.5,1.5,0,0,0,1.5-1.5V10.92a.5.5,0,0,1,.51-.49h1.33A.48.48,0,0,1,29.23,10.92Z"/><path class="cls-2" d="M49.06,15.67h0a1.89,1.89,0,0,0,1.3-1.82V12.68a2.26,2.26,0,0,0-2.26-2.25H42.44a.49.49,0,0,0-.49.49V21.18a.47.47,0,0,0,.46.46h6a3,3,0,0,0,2.67-2.41V18A2.51,2.51,0,0,0,49.06,15.67ZM47.25,12a1,1,0,0,1,1,1v1.11a1,1,0,0,1-1,1h-3V12Zm1.46,6.89A1.06,1.06,0,0,1,47.63,20H44.28V16.67h3.35a1.06,1.06,0,0,1,1.08,1Z"/><path class="cls-2" d="M36.38,10.33H34.77a4.3,4.3,0,0,0-4.29,4.2c0,1,0,2,0,3a4.3,4.3,0,0,0,4.29,4.18h1.61a4.3,4.3,0,0,0,4.28-4.16c.05-1,.05-2.05,0-3.07A4.33,4.33,0,0,0,36.38,10.33Zm2,6.78c0,1.65-1.09,2.95-2.36,2.95h-.9c-1.28,0-2.32-1.32-2.36-3,0-.7,0-1.42,0-2.13,0-1.64,1.08-3,2.36-3H36c1.27,0,2.31,1.3,2.36,2.94C38.4,15.67,38.4,16.4,38.39,17.11Z"/></svg>